<svg width="24" height="24" viewBox="0 0 24 24" fill="none" xmlns="http://www.w3.org/2000/svg">
<path d="M9.1928 1.74936L14.8081 1.75464L14.8728 2.43271C14.9601 3.34635 15.475 4.15995 16.2764 4.62202C16.7041 4.86777 17.1911 4.998 17.6822 4.998C18.0968 4.998 18.5052 4.9079 18.8848 4.73528L19.5029 4.45417L22.3152 9.29863L21.7551 9.69448C21.002 10.2267 20.553 11.0775 20.5522 11.9996L19.0522 11.9984C19.0532 10.8167 19.5348 9.71466 20.3567 8.91271L18.8609 6.33601C18.4796 6.44261 18.0837 6.498 17.6822 6.498C16.9275 6.498 16.1827 6.29832 15.5284 5.92222C14.5038 5.33166 13.7855 4.3647 13.4987 3.25341L10.5031 3.25059C10.2168 4.36314 9.4992 5.33035 8.47395 5.92168L8.47262 5.92245C7.81134 6.30205 7.05851 6.502 6.29323 6.502C5.90078 6.502 5.51188 6.44927 5.13673 6.34689L3.65237 8.90709C4.46895 9.71432 4.94823 10.8259 4.94823 12C4.94823 13.1741 4.46895 14.2857 3.65237 15.0929L5.13673 17.6531C5.51188 17.5507 5.90078 17.498 6.29323 17.498C7.05851 17.498 7.81134 17.698 8.47262 18.0776L8.47395 18.0783C9.4992 18.6697 10.2168 19.6369 10.5031 20.7494L13.4987 20.7466C13.7855 19.6353 14.5031 18.6688 15.5277 18.0782C16.182 17.7021 16.9275 17.502 17.6822 17.502C18.0837 17.502 18.4796 17.5574 18.8609 17.664L20.3567 15.0873C19.5348 14.2853 19.0532 13.1833 19.0522 12.0016L20.5522 11.9996C20.553 12.9217 21.002 13.7733 21.7551 14.3055L22.3152 14.7014L19.5029 19.5458L18.8848 19.2647C18.5052 19.0921 18.0968 19.002 17.6822 19.002C17.1911 19.002 16.704 19.1323 16.2763 19.3781C15.4749 19.8402 14.9601 20.6537 14.8728 21.5673L14.8081 22.2454L9.1928 22.2506L9.12856 21.5705C9.04212 20.6554 8.52752 19.8412 7.72546 19.3782C7.29283 19.13 6.79781 18.998 6.29323 18.998C5.88377 18.998 5.47935 19.0853 5.10728 19.2523L4.49049 19.529L1.69861 14.7137L2.25275 14.3171C2.99733 13.7842 3.44823 12.9182 3.44823 12C3.44823 11.0819 2.99733 10.2158 2.25275 9.68291L1.69861 9.28633L4.49049 4.47097L5.10728 4.74773C5.47935 4.91469 5.88376 5.002 6.29323 5.002C6.79768 5.002 7.29257 4.8701 7.72512 4.62197C8.52737 4.159 9.04211 3.34471 9.12856 2.42947L9.1928 1.74936Z" fill="#00539F"/>
<path fill-rule="evenodd" clip-rule="evenodd" d="M7.74999 12C7.74999 9.65279 9.65277 7.75 12 7.75C14.3472 7.75 16.25 9.65279 16.25 12C16.25 14.3472 14.3472 16.25 12 16.25C9.65277 16.25 7.74999 14.3472 7.74999 12ZM12 9.25C10.4812 9.25 9.24999 10.4812 9.24999 12C9.24999 13.5188 10.4812 14.75 12 14.75C13.5188 14.75 14.75 13.5188 14.75 12C14.75 10.4812 13.5188 9.25 12 9.25Z" fill="#00539F"/>
</svg>
