<svg width="68" height="21" viewBox="0 0 68 21" fill="none" xmlns="http://www.w3.org/2000/svg">
<path fill-rule="evenodd" clip-rule="evenodd" d="M47.8529 0.5C49.2877 0.5 50.5301 0.678955 51.5275 0.947143V4.05827C50.5476 3.0392 49.3928 2.39545 47.8704 2.39545C45.0882 2.39545 43.2336 4.38014 43.2336 7.02672C43.2336 9.67305 45.0882 11.6577 47.8704 11.6577C49.3928 11.6577 50.5476 11.0142 51.5275 9.99492V13.1063C50.5301 13.3745 49.2877 13.5711 47.8529 13.5711C43.0412 13.5711 39.559 11.1214 39.559 7.02672C39.559 2.93183 43.0412 0.5 47.8529 0.5V0.5ZM34.1872 5.5784C36.5844 5.91793 38.5791 6.77642 38.5791 9.44065C38.5791 12.5699 35.6745 13.5711 32.5423 13.5534C30.3552 13.5353 28.5004 13.3208 27.1355 12.7665V9.95913C29.0778 11.2466 31.0725 11.6577 32.5423 11.6577C34.0646 11.6577 35.4646 11.2824 35.4646 10.1023C35.4646 8.92217 34.1697 8.63584 31.5101 8.22473C29.2177 7.86707 27.1355 6.86566 27.1179 4.5591C27.1004 1.44773 29.9877 0.5 32.7522 0.5C34.5372 0.5 36.2695 0.714501 37.8616 1.25112V4.27301C36.5319 3.07499 34.5547 2.39545 32.6124 2.39545C31.2999 2.39545 30.0575 2.8247 30.0575 3.82587C30.0575 5.07758 31.8948 5.25653 34.1872 5.5784V5.5784ZM20.994 11.3902C22.4112 11.3902 24.7734 11.0504 25.7008 10.2098V13.2854H15.6396C16.1295 12.6953 16.2171 12.3018 16.2171 11.1038V2.95009C16.2171 1.75207 16.1295 1.35862 15.6396 0.768555H25.1759V3.84413C24.2485 3.00378 21.8863 2.66401 20.4691 2.66401H19.349V5.98988H20.1716C20.9765 5.98988 22.2188 5.95409 23.0412 5.65011V8.11773C22.2188 7.81375 20.9765 7.77796 20.1716 7.77796H19.349V11.3902H20.994ZM0.556152 0.768555H14.362V3.84413C13.382 3.00378 11.2998 2.66401 9.07772 2.66401V11.0504C9.07772 12.3018 9.18255 12.6416 9.65513 13.2854H5.26301C5.73559 12.6416 5.84042 12.3018 5.84042 11.0504V2.66401C3.61833 2.66401 1.5361 3.00378 0.556152 3.84413V0.768555Z" fill="#E81C2D"/>
<path fill-rule="evenodd" clip-rule="evenodd" d="M60.1956 11.6582C57.6933 11.6582 56.0662 9.54826 56.0662 7.02695C56.0662 4.488 57.6933 2.39569 60.1956 2.39569C62.6976 2.39569 64.325 4.488 64.325 7.02695C64.325 9.54826 62.6976 11.6582 60.1956 11.6582M60.1959 0.500183C55.2264 0.500183 52.3918 3.45049 52.3918 7.02665C52.3918 10.5852 55.2264 13.5534 60.1959 13.5534C65.1652 13.5534 68 10.5852 68 7.02665C68 3.45049 65.1652 0.500183 60.1959 0.500183" fill="#E81C2D"/>
<mask id="mask0_1_16691" style="mask-type:luminance" maskUnits="userSpaceOnUse" x="54" y="16" width="14" height="5">
<path fill-rule="evenodd" clip-rule="evenodd" d="M54.3381 20.1519H67.8908V16.6854H54.3381V20.1519H54.3381Z" fill="white"/>
</mask>
<g mask="url(#mask0_1_16691)">
<path fill-rule="evenodd" clip-rule="evenodd" d="M59.5118 16.6854H67.8487C67.858 16.6854 67.8657 16.6874 67.8715 16.6908L67.8734 16.6918C67.8753 16.693 67.8772 16.6945 67.8789 16.6962C67.8952 16.7124 67.8966 16.7452 67.8717 16.769C67.8647 16.7754 67.8585 16.7793 67.8513 16.783L67.8364 16.7901C66.8678 17.2412 65.5707 18.6167 65.5707 18.6167C64.6008 19.5583 63.8737 20.152 62.3231 20.152H54.3744C54.3513 20.152 54.3393 20.1297 54.3381 20.1064C54.3381 20.1059 54.3381 20.1071 54.3381 20.1064C54.3381 20.0919 54.3446 20.0763 54.3549 20.0677C54.3614 20.062 54.371 20.0554 54.3801 20.0495C55.2524 19.5516 56.5552 18.1712 56.5552 18.1712C57.0887 17.5272 58.1545 16.6854 59.5118 16.6854" fill="#00539F"/>
</g>
<mask id="mask1_1_16691" style="mask-type:luminance" maskUnits="userSpaceOnUse" x="40" y="16" width="15" height="5">
<path fill-rule="evenodd" clip-rule="evenodd" d="M40.7538 20.1519H54.3065V16.6854H40.7538V20.1519Z" fill="white"/>
</mask>
<g mask="url(#mask1_1_16691)">
<path fill-rule="evenodd" clip-rule="evenodd" d="M45.9275 16.6854H54.2643C54.2737 16.6854 54.2813 16.6874 54.2871 16.6908L54.289 16.6918C54.2909 16.693 54.2929 16.6945 54.2945 16.6962C54.3109 16.7124 54.3123 16.7452 54.2873 16.769C54.2804 16.7754 54.2741 16.7793 54.267 16.783L54.2521 16.7901C53.2834 17.2412 51.9863 18.6167 51.9863 18.6167C51.0165 19.5583 50.2896 20.152 48.7387 20.152H40.79C40.767 20.152 40.755 20.1297 40.7538 20.1064C40.7538 20.1059 40.7538 20.1071 40.7538 20.1064C40.7538 20.0919 40.7603 20.0763 40.7706 20.0677C40.7771 20.062 40.7866 20.0554 40.7958 20.0495C41.668 19.5516 42.9708 18.1712 42.9708 18.1712C43.5043 17.5272 44.5702 16.6854 45.9275 16.6854" fill="#00539F"/>
</g>
<mask id="mask2_1_16691" style="mask-type:luminance" maskUnits="userSpaceOnUse" x="27" y="16" width="14" height="5">
<path fill-rule="evenodd" clip-rule="evenodd" d="M27.1691 20.1519H40.7218V16.6854H27.1691L27.1691 20.1519H27.1691Z" fill="white"/>
</mask>
<g mask="url(#mask2_1_16691)">
<path fill-rule="evenodd" clip-rule="evenodd" d="M32.3427 16.6854H40.6796C40.689 16.6854 40.6966 16.6874 40.7024 16.6908L40.7043 16.6918C40.7062 16.693 40.7081 16.6945 40.7098 16.6962C40.7261 16.7124 40.7276 16.7452 40.7026 16.769C40.6957 16.7754 40.6894 16.7793 40.6822 16.783L40.6674 16.7901C39.6987 17.2412 38.4016 18.6167 38.4016 18.6167C37.4317 19.5583 36.7049 20.152 35.154 20.152H27.2053C27.1823 20.152 27.1703 20.1297 27.1691 20.1064C27.1691 20.1059 27.1691 20.1071 27.1691 20.1064C27.1691 20.0919 27.1755 20.0763 27.1859 20.0677C27.1923 20.062 27.2022 20.0554 27.211 20.0495C28.0833 19.5516 29.3864 18.1712 29.3864 18.1712C29.9196 17.5272 30.9855 16.6854 32.3427 16.6854" fill="#00539F"/>
</g>
<mask id="mask3_1_16691" style="mask-type:luminance" maskUnits="userSpaceOnUse" x="13" y="16" width="15" height="5">
<path fill-rule="evenodd" clip-rule="evenodd" d="M13.5847 20.1519H27.1374V16.6854H13.5847L13.5847 20.1519H13.5847Z" fill="white"/>
</mask>
<g mask="url(#mask3_1_16691)">
<path fill-rule="evenodd" clip-rule="evenodd" d="M18.7584 16.6854H27.0952C27.1046 16.6854 27.1123 16.6874 27.118 16.6908L27.12 16.6918C27.1219 16.693 27.1238 16.6945 27.1255 16.6962C27.1418 16.7124 27.1432 16.7452 27.1183 16.769C27.1113 16.7754 27.1051 16.7793 27.0979 16.783L27.083 16.7901C26.1143 17.2412 24.8173 18.6167 24.8173 18.6167C23.8474 19.5583 23.1203 20.152 21.5697 20.152H13.6209C13.5979 20.152 13.5859 20.1297 13.5847 20.1064C13.5847 20.1059 13.5847 20.1071 13.5847 20.1064C13.5847 20.0919 13.5912 20.0763 13.6015 20.0677C13.608 20.062 13.6176 20.0554 13.6267 20.0495C14.4989 19.5516 15.8018 18.1712 15.8018 18.1712C16.3353 17.5272 17.4011 16.6854 18.7584 16.6854" fill="#00539F"/>
</g>
<mask id="mask4_1_16691" style="mask-type:luminance" maskUnits="userSpaceOnUse" x="0" y="16" width="14" height="5">
<path fill-rule="evenodd" clip-rule="evenodd" d="M0 20.1519H13.5527V16.6854H0L0 20.1519H0Z" fill="white"/>
</mask>
<g mask="url(#mask4_1_16691)">
<path fill-rule="evenodd" clip-rule="evenodd" d="M5.17368 16.6854H13.5105C13.5199 16.6854 13.5276 16.6874 13.5333 16.6908L13.5352 16.6918C13.5372 16.693 13.5391 16.6945 13.5408 16.6962C13.5571 16.7124 13.5585 16.7452 13.5336 16.769C13.5266 16.7754 13.5204 16.7793 13.5132 16.783L13.4983 16.7901C12.5296 17.2412 11.2325 18.6167 11.2325 18.6167C10.2627 19.5583 9.53557 20.152 7.98493 20.152H0.0362232C0.0131939 20.152 0.00119944 20.1297 0 20.1064C0 20.1059 0 20.1071 0 20.1064C0 20.0919 0.00647699 20.0763 0.0167922 20.0677C0.0232692 20.062 0.0328647 20.0554 0.0419805 20.0495C0.914216 19.5516 2.21705 18.1712 2.21705 18.1712C2.75056 17.5272 3.81639 16.6854 5.17368 16.6854" fill="#00539F"/>
</g>
</svg>
