<svg width="16" height="16" viewBox="0 0 16 16" fill="none" xmlns="http://www.w3.org/2000/svg">
<path fill-rule="evenodd" clip-rule="evenodd" d="M0.916626 6.00002C0.916626 3.19247 3.19241 0.916687 5.99996 0.916687C8.80751 0.916687 11.0833 3.19247 11.0833 6.00002C11.0833 7.13323 10.7125 8.17981 10.0857 9.02508L14.8635 13.8029L13.8028 14.8635L9.02502 10.0857C8.17975 10.7126 7.13317 11.0834 5.99996 11.0834C3.19241 11.0834 0.916626 8.80757 0.916626 6.00002ZM5.99996 2.41669C4.02084 2.41669 2.41663 4.0209 2.41663 6.00002C2.41663 7.97914 4.02084 9.58335 5.99996 9.58335C7.97908 9.58335 9.58329 7.97914 9.58329 6.00002C9.58329 4.0209 7.97908 2.41669 5.99996 2.41669Z" fill="#666666"/>
</svg>
